<svg width="146" height="294" viewBox="0 0 146 294" fill="none" xmlns="http://www.w3.org/2000/svg">
<rect y="294" width="294" height="146" rx="20" transform="rotate(-90 0 294)" fill="#FAFAFA"/>
<rect x="35" y="104" width="76" height="22" fill="#0FED18"/>
<rect x="83" y="130" width="28" height="8" fill="#0FED18"/>
<rect x="35" y="130" width="28" height="8" fill="#0FED18"/>
<rect x="83" y="198" width="28" height="8" fill="#0FED18"/>
<rect x="35" y="198" width="28" height="8" fill="#0FED18"/>
<rect x="37.4038" y="197.939" width="91.3406" height="8" transform="rotate(-45 37.4038 197.939)" fill="#0FED18"/>
<rect x="43.0607" y="133.352" width="91.3406" height="8" transform="rotate(45 43.0607 133.352)" fill="#0FED18"/>
<rect x="35" y="206" width="28" height="8" transform="rotate(-90 35 206)" fill="#0FED18"/>
<rect x="103" y="206" width="28" height="8" transform="rotate(-90 103 206)" fill="#0FED18"/>
<rect x="35" y="158" width="28" height="8" transform="rotate(-90 35 158)" fill="#0FED18"/>
<rect x="103" y="158" width="28" height="8" transform="rotate(-90 103 158)" fill="#0FED18"/>
<path d="M41.728 99.084C40.936 99.084 40.208 98.9 39.544 98.532C38.888 98.164 38.364 97.652 37.972 96.996C37.588 96.332 37.396 95.588 37.396 94.764C37.396 93.94 37.588 93.2 37.972 92.544C38.364 91.888 38.888 91.376 39.544 91.008C40.208 90.64 40.936 90.456 41.728 90.456C42.52 90.456 43.244 90.64 43.9 91.008C44.564 91.376 45.084 91.888 45.46 92.544C45.844 93.2 46.036 93.94 46.036 94.764C46.036 95.588 45.844 96.332 45.46 96.996C45.076 97.652 44.556 98.164 43.9 98.532C43.244 98.9 42.52 99.084 41.728 99.084ZM41.728 97.212C42.4 97.212 42.936 96.988 43.336 96.54C43.744 96.092 43.948 95.5 43.948 94.764C43.948 94.02 43.744 93.428 43.336 92.988C42.936 92.54 42.4 92.316 41.728 92.316C41.048 92.316 40.504 92.536 40.096 92.976C39.696 93.416 39.496 94.012 39.496 94.764C39.496 95.508 39.696 96.104 40.096 96.552C40.504 96.992 41.048 97.212 41.728 97.212ZM53.6216 90.576V92.22H50.1896V93.996H52.7576V95.592H50.1896V99H48.1376V90.576H53.6216ZM61.1441 90.576V92.22H57.7121V93.996H60.2801V95.592H57.7121V99H55.6601V90.576H61.1441ZM78.2776 90.576L76.0816 99H73.5976L72.2536 93.456L70.8616 99H68.3776L66.2416 90.576H68.4376L69.6496 96.708L71.1496 90.576H73.4056L74.8456 96.708L76.0696 90.576H78.2776ZM87.5627 90.576V99H85.5107V95.532H82.3187V99H80.2667V90.576H82.3187V93.876H85.5107V90.576H87.5627ZM92.056 90.576V99H90.004V90.576H92.056ZM100.563 90.576V92.22H98.3311V99H96.2791V92.22H94.0471V90.576H100.563ZM104.605 92.22V93.924H107.353V95.508H104.605V97.356H107.713V99H102.553V90.576H107.713V92.22H104.605Z" fill="#0F0F0F"/>
</svg>
