<svg width="84" height="12" viewBox="0 0 84 12" fill="none" xmlns="http://www.w3.org/2000/svg">
<path d="M3.17444 12C5.28607 12 6.18107 10.9674 6.18107 9.02791C6.18107 7.24186 5.38396 6.54419 4.26522 5.88837L2.74093 5.02326C2.02773 4.6186 1.52429 4.17209 1.52429 3.16744V3C1.52429 1.92558 2.0557 1.54884 3.09054 1.54884C4.13936 1.54884 4.74069 1.92558 4.74069 3.32093V4.00465H6.09717V3.40465C6.09717 1.43721 5.06233 0.446512 3.10452 0.446512C1.10476 0.446512 0.167812 1.50698 0.167812 3.19535C0.167812 4.67442 0.908981 5.42791 1.98577 6.06977L3.51007 6.93488C4.34912 7.39535 4.81061 7.82791 4.81061 9.02791V9.27907C4.81061 10.4651 4.33514 10.8977 3.18843 10.8977C1.95781 10.8977 1.35648 10.4233 1.35648 9V7.9814H0V8.74884C0 10.9256 1.03484 12 3.17444 12Z" fill="#0F0F0F"/>
<path d="M11.927 11.8605H13.6331V0.586046H11.927V5.51163H9.0602V0.586046H7.35412V11.8605H9.0602V6.93488H11.927V11.8605Z" fill="#0F0F0F"/>
<path d="M21.2655 12C25.1951 12 27.4046 9.25116 27.4046 5.98605C27.4046 2.74884 25.1951 0 21.2655 0C17.3359 0 15.1263 2.74884 15.1263 5.98605C15.1263 9.25116 17.3359 12 21.2655 12ZM17.1541 5.98605C17.1541 3.7814 18.3987 1.78605 21.2655 1.78605C24.1322 1.78605 25.3769 3.7814 25.3769 5.98605C25.3769 8.23256 24.1322 10.214 21.2655 10.214C18.3987 10.214 17.1541 8.23256 17.1541 5.98605Z" fill="#0F0F0F"/>
<path d="M29.5754 11.8605H31.5472V8.0093H37.5839C40.4926 8.0093 41.9749 6.65581 41.9749 4.07442C41.9749 1.47907 40.4087 0.139535 37.5839 0.139535H29.5754V11.8605ZM31.5472 6.23721V1.91163H37.458C39.234 1.91163 39.9472 2.55349 39.9472 4.04651C39.9472 5.5814 39.234 6.23721 37.458 6.23721H31.5472Z" fill="#0F0F0F"/>
<path d="M46.4823 11.8605H48.454V2.80465L55.3763 11.8605H57.3481V0.139535H55.3763V9.19535L48.454 0.139535H46.4823V11.8605Z" fill="#0F0F0F"/>
<path d="M65.6493 12C69.5789 12 71.7884 9.25116 71.7884 5.98605C71.7884 2.74884 69.5789 0 65.6493 0C61.7197 0 59.5102 2.74884 59.5102 5.98605C59.5102 9.25116 61.7197 12 65.6493 12ZM61.5379 5.98605C61.5379 3.7814 62.7825 1.78605 65.6493 1.78605C68.5161 1.78605 69.7607 3.7814 69.7607 5.98605C69.7607 8.23256 68.5161 10.214 65.6493 10.214C62.7825 10.214 61.5379 8.23256 61.5379 5.98605Z" fill="#0F0F0F"/>
<path d="M74.8962 11.8605H76.6862L78.3643 2.49767L78.4063 2.34419L78.4342 2.49767L80.1124 11.8605H81.9024L84 0.586046H82.6575L81.0353 10.1721L81.0074 10.2698L80.9934 10.1721L79.2593 0.586046H77.5393L75.8052 10.186L75.7912 10.2558L75.7772 10.186L74.1411 0.586046H72.7846L74.8962 11.8605Z" fill="#0F0F0F"/>
</svg>
