<svg width="10" height="20" viewBox="0 0 10 20" fill="none" xmlns="http://www.w3.org/2000/svg">
<path d="M6.3881 19.5C6.3881 19.7761 6.16424 20 5.8881 20H2.78045C2.50431 20 2.28045 19.7761 2.28045 19.5V5.12457C2.28045 4.01582 2.50708 3.08285 2.96034 2.32566C3.42304 1.55945 4.06988 0.982546 4.90085 0.594936C5.74127 0.198312 6.73749 0 7.88952 0C8.26723 0 8.63078 0.0270426 8.98017 0.0811277C9.18994 0.108188 9.3963 0.140121 9.59926 0.176929C9.83323 0.219361 9.99753 0.42777 9.99408 0.665531L9.96583 2.61608C9.96158 2.90966 9.68334 3.12296 9.39093 3.09637C9.19263 3.07834 8.96128 3.06933 8.69688 3.06933C8.20585 3.06933 7.78565 3.15046 7.43626 3.31271C7.09632 3.46595 6.83664 3.69582 6.65722 4.0023C6.47781 4.30878 6.3881 4.68287 6.3881 5.12457V19.5ZM8.94759 6.42261C9.22373 6.42261 9.44759 6.64647 9.44759 6.92261V8.68095C9.44759 8.95709 9.22373 9.18095 8.94759 9.18095H0.5C0.223857 9.18095 0 8.95709 0 8.68095V6.92261C0 6.64647 0.223858 6.42261 0.5 6.42261H8.94759Z" fill="white" fill-opacity="0.6"/>
</svg>
