<svg width="24" height="24" viewBox="0 0 24 24" fill="none" xmlns="http://www.w3.org/2000/svg">
<path fill-rule="evenodd" clip-rule="evenodd" d="M12.0123 5.57193L10.9253 4.48494C8.7774 2.33705 5.29499 2.33705 3.14711 4.48494C0.999223 6.63282 0.999223 10.1152 3.14711 12.2631L11.9859 21.1019L11.9877 21.1001L12.0141 21.1265L20.8529 12.2876C23.0008 10.1398 23.0008 6.65736 20.8529 4.50947C18.705 2.36159 15.2226 2.36159 13.0747 4.50947L12.0123 5.57193ZM11.9877 18.2717L16.924 13.3355L18.3748 11.9344L18.3762 11.9359L19.4387 10.8734C20.8055 9.5066 20.8055 7.29052 19.4387 5.92369C18.0719 4.55685 15.8558 4.55685 14.4889 5.92369L12.0134 8.39928L12.0061 8.39204L12.005 8.39312L9.51107 5.89915C8.14423 4.53231 5.92815 4.53231 4.56132 5.89915C3.19449 7.26598 3.19449 9.48206 4.56132 10.8489L7.10075 13.3883L7.10254 13.3865L11.9877 18.2717Z" fill="#0F0F0F"/>
</svg>
