<svg width="20" height="18" viewBox="0 0 20 18" fill="none" xmlns="http://www.w3.org/2000/svg">
<path fill-rule="evenodd" clip-rule="evenodd" d="M10.0117 2.96261L8.97291 1.94169C6.92023 -0.0756164 3.59219 -0.0756164 1.53951 1.94169C-0.513169 3.959 -0.513169 7.22971 1.53951 9.24702L9.98656 17.5485L9.98827 17.5468L10.0134 17.5716L18.4605 9.27006C20.5132 7.25275 20.5132 3.98205 18.4605 1.96474C16.4078 -0.0525719 13.0798 -0.0525719 11.0271 1.96474L10.0117 2.96261ZM9.98827 14.8904L14.7057 10.2542L16.0922 8.93833L16.0936 8.93969L17.109 7.94182C18.4152 6.65808 18.4152 4.57672 17.109 3.29298C15.8027 2.00924 13.6849 2.00924 12.3786 3.29298L10.0128 5.61808L10.0058 5.61128L10.0048 5.61229L7.62138 3.26993C6.31513 1.98619 4.19728 1.98619 2.89104 3.26993C1.58479 4.55368 1.58479 6.63503 2.89104 7.91878L5.3179 10.3038L5.31962 10.3021L9.98827 14.8904Z" fill="#666666"/>
</svg>
