<svg width="60" height="52" viewBox="0 0 60 52" fill="none" xmlns="http://www.w3.org/2000/svg">
<rect width="60" height="52.0006" rx="8" fill="#0F0F0F"/>
<path fill-rule="evenodd" clip-rule="evenodd" d="M27.2222 38.9843C32.6889 39.055 37.6473 38.8906 43.2268 38.5889C44.8239 38.5014 48.6922 38.2059 49.7428 36.2788C50.3952 35.0842 49.6599 34.0416 49.1557 33.6087C47.8848 32.5182 46.5188 32.3184 45.0373 31.796C41.0004 30.3767 37.0683 29.9854 32.9173 29.8106C32.3518 29.7877 30.7969 29.461 30.453 29.7211C30.173 30.4433 30.6188 31.5837 29.7299 31.1779C29.5804 30.6514 29.7843 29.819 29.4309 29.6608C29.3276 29.615 28.474 29.7773 28.2212 29.7919C27.301 29.8481 26.3727 29.8502 25.4484 29.8689C23.7127 29.9001 22.0042 30.1603 20.3039 30.41C18.4363 30.6868 12.6339 32.1998 11.1714 33.3028C10.572 33.7523 9.80946 34.3121 10.0432 35.7127C10.2131 36.7325 11.0504 37.1966 11.6852 37.49C14.7814 38.9197 23.85 38.9822 27.2208 38.9863L27.2222 38.9843ZM13.7566 35.6107C14.2595 34.5015 20.5607 33.7273 21.8384 33.6087C25.443 33.2716 27.1991 33.0572 30.9165 33.0655L39.8397 33.7981C40.923 33.9729 45.0645 34.643 45.9493 35.3173C46.4495 35.6961 47.3139 35.6128 47.5328 36.4328C47.2881 36.9905 47.1019 36.8407 46.5827 36.9885C46.232 37.0884 45.9466 37.2444 45.6041 37.3631C44.1361 37.8667 39.9933 38.0103 38.4587 38.0769C36.7692 38.1497 35.1396 38.2142 33.4569 38.26C31.8666 38.3017 30.173 38.6055 28.6072 38.593L28.4903 38.1102C28.4604 37.9562 28.455 37.9 28.4251 37.7397C28.3789 37.4963 28.334 37.2548 28.2769 37.08L27.8393 37.0363L27.6843 37.619C27.5022 37.4525 27.6503 37.6836 27.5008 37.1737L27.4546 36.9801C27.3636 37.1508 27.4234 37.003 27.3663 37.2757C27.2127 38.0082 27.4424 36.7512 27.3364 37.4754C27.3024 37.7085 27.4003 37.4713 27.2997 37.8147C26.8824 37.5795 27.3078 37.3298 26.9925 36.8782C26.79 37.0197 26.8987 36.8095 26.8702 37.1279C26.862 37.2257 26.9041 37.3818 26.9381 37.5587C26.6405 37.5296 26.7166 37.4671 26.5304 37.7169C26.1811 37.4942 26.563 37.5191 26.1389 37.3818L26.022 37.6503L25.8861 37.9104L25.6836 37.515C25.3411 37.6607 25.5884 37.7543 25.3383 37.644C25.2391 37.5982 25.2976 37.515 25.0679 37.386C24.8504 37.8105 25.0855 37.7606 24.7607 37.9333C24.4657 37.1695 25.0787 36.5764 24.6832 36.0519C24.3312 36.4203 24.6465 37.1966 24.4521 37.7293C24.2659 37.5837 24.3244 37.8417 24.285 37.259C24.2537 36.7741 24.4318 36.1352 24.3257 35.4422C24.0322 35.5962 24.2306 35.336 24.0756 35.7335C23.9153 36.1498 24.1463 36.7387 23.8378 37.0238C23.5496 36.3371 24.1123 35.9354 23.8378 35.2549C23.3335 35.6212 23.8378 36.5889 23.4518 36.874C23.218 36.2788 23.6081 35.5067 23.4001 34.7658C22.8061 35.2237 23.4491 37.028 22.991 37.4879L22.9081 37.2257C22.9024 37.192 22.8979 37.1581 22.8945 37.1237C22.8401 36.6305 23.1378 35.5379 22.8374 34.7929C22.2883 35.2049 22.9149 37.3839 22.4528 37.6856C22.2013 37.0405 22.6104 35.3673 22.4147 34.4973C22.1565 34.4058 22.2638 34.541 22.2366 34.5681C22.204 34.6058 22.1732 34.6468 22.1442 34.6909L22.045 34.8511C22.0205 34.3517 22.0803 34.4724 21.9132 34.2268C21.5448 34.7804 21.6957 35.9978 21.6943 36.9094C21.6943 37.6253 21.64 37.5545 21.5285 37.6586C21.5174 37.6267 21.5082 37.5932 21.5013 37.5587C21.4972 37.5316 21.4836 37.4921 21.4769 37.4588L21.4741 35.8376C21.5135 35.2195 21.5584 34.7221 21.5339 34.0437C20.7837 34.2663 21.4429 35.8272 21.0664 36.5077C20.7891 35.9167 21.2132 34.1914 20.8285 34.1581L20.3745 34.2081C19.9586 34.6201 20.3895 36.8012 20.066 37.3422C19.9056 37.0155 20.0565 35.182 20.0171 34.1581C19.6881 34.283 19.8023 34.1435 19.7153 34.6097L19.661 34.5182L19.5658 34.3558C19.4843 34.2206 19.5617 34.3059 19.4516 34.1706C19.1635 34.3121 19.3021 34.3392 19.1241 34.3746L17.9225 34.4724C17.2361 34.5473 17.2837 34.5556 16.774 34.7929C16.4125 34.9635 16.0101 34.8803 15.8063 34.9427C15.4964 35.0364 15.3305 35.078 15.003 35.1591C14.617 35.2528 14.5476 35.5046 14.0162 35.5941C13.5812 35.6773 14.0638 35.823 13.7579 35.6107H13.7566Z" fill="#F6CE3C"/>
<path fill-rule="evenodd" clip-rule="evenodd" d="M10.8594 24.0981L10.9844 24.7433C11.6287 24.9451 11.9413 24.3603 12.3776 24.096C12.7446 23.8734 13.5329 23.7755 13.9855 23.7173C14.5401 23.6444 15.0865 23.5591 15.5976 23.3427C16.1575 23.1075 16.4403 22.9285 17.1226 22.8578C18.2249 22.7406 19.3233 22.5496 20.4146 22.2855C21.6379 22.0045 22.8027 22.1752 23.9906 21.9421C23.9104 22.4082 23.5136 22.9452 23.7732 23.5404C23.977 24.0399 24.6906 24.1127 25.0277 23.7631C25.5469 23.2282 25.1419 22.5539 25.0413 21.9129C26.0186 22.0045 29.0713 21.376 29.6082 21.8193C29.1923 22.8432 26.6519 24.3187 25.4001 24.583C25.1011 24.6455 24.7722 24.6413 24.4541 24.6954C24.3114 24.7137 24.1715 24.7664 24.0396 24.8515C23.8099 25.0117 23.8534 24.9764 23.7229 25.2365C23.8085 25.326 23.7541 25.2969 23.9186 25.3593C23.9893 25.3822 24.0599 25.3988 24.1306 25.4092C24.2964 25.4384 24.4297 25.4384 24.6023 25.4738C25.4436 25.6465 26.2619 26.1168 27.1209 26.3124C27.6945 26.4477 28.3061 26.4623 28.7424 26.9097C29.0931 27.2698 29.4791 28.2 29.9902 28.2042C30.489 28.2084 30.8709 27.3197 31.2039 26.9701C31.7422 26.3978 32.1282 26.4644 32.8621 26.3062C34.0691 26.0461 35.0138 25.3843 36.2656 25.2948C36.0821 24.4686 34.4592 24.7787 33.0266 24.0107C32.2288 23.5841 30.5896 22.5685 30.368 21.6757C32.0126 21.6028 33.5254 22.0753 35.098 21.8984C34.8969 22.5352 34.6413 22.4748 34.7256 23.5321C35.1606 24.1377 35.8809 24.0648 36.2737 23.5591C36.3281 22.633 36.1256 22.7308 36.0345 22.0024C37.9374 22.0524 40.1719 22.3042 42.0463 22.7162C42.8156 22.8848 47.1596 23.8692 47.5198 24.173C47.3635 24.479 47.2887 24.3708 47.0468 24.6059C46.5683 25.0679 46.6907 25.3343 45.6128 25.9378C44.6777 26.4665 43.574 25.8338 43.0575 26.7641C43.5428 27.788 44.9658 27.3468 45.9975 29.4779C46.2258 29.9482 46.4351 30.483 46.9204 30.5101C47.5497 28.7932 47.9044 29.4113 49.2025 28.2958C49.1821 27.6506 47.8881 25.7089 47.6992 24.2896C48.2388 24.2396 48.546 24.685 48.8491 24.6475C49.3139 24.5851 49.2895 23.9982 48.6275 23.8005C47.918 23.5882 47.1501 23.145 46.3794 22.8848C44.6396 22.3021 38.1562 20.9077 36.4545 20.8953C35.6227 20.8869 34.5054 21.0409 33.7089 20.8141C32.6338 20.5102 32.2029 20.7496 31.1441 20.8245C29.2793 20.9535 28.1471 20.6372 25.6828 20.8911C24.7627 20.9847 23.833 20.8536 22.9101 20.9119C22.051 20.966 21.1839 21.12 20.352 21.3115C18.6979 21.6903 17.0601 22.0961 15.4372 22.3833C14.4857 22.5518 13.889 22.6767 13.0355 23.0617C12.659 23.2324 12.3287 23.403 11.9821 23.5799C11.5458 23.8088 11.1761 23.7527 10.8594 24.0981Z" fill="#F6CE3C"/>
<path fill-rule="evenodd" clip-rule="evenodd" d="M17.9865 17.9058C18.1904 17.5104 18.1374 17.3543 18.3127 16.9172C18.8156 16.9755 18.7817 17.346 20.2183 17.2398C21.5001 17.1441 22.6934 17.6248 23.9779 16.3949C24.4468 15.9433 24.6955 15.1233 25.3996 15.0567C25.3779 15.6415 25.4336 16.4427 25.7163 16.705C25.8984 16.8735 26.6147 17.0546 26.8811 16.9297C27.4275 16.6717 27.7456 14.5676 27.172 13.8913C25.946 12.447 24.2674 15.4833 22.9789 15.4854C23.1148 14.7862 23.6761 14.5364 23.7251 13.5083C23.0659 13.5416 22.3074 15.4063 19.9084 15.3606C19.1187 15.346 18.4894 15.1067 17.8887 14.5572C17.3953 14.1056 16.8326 13.319 16.3704 13.0234C15.7139 13.9183 15.5318 17.6789 12.2167 18.0848C11.5643 18.1638 10.2377 17.7414 10.6713 19.3688C11.0655 20.8506 12.1569 19.4999 12.2874 19.4354C12.6489 19.2544 13.0322 19.3438 13.4373 19.2814C13.7091 19.2398 14.1617 19.0525 14.4567 18.8943C15.7479 18.2075 15.5372 17.937 16.0469 17.4292C16.4343 17.0463 17.0772 18.066 17.9865 17.9058Z" fill="#F6CE3C"/>
<path fill-rule="evenodd" clip-rule="evenodd" d="M36.2776 13.5244C36.3116 14.846 36.7982 14.5192 36.9477 15.5244C35.7108 15.2955 34.1043 12.6857 32.8117 13.9011C32.2095 14.4693 32.5602 16.6441 33.0291 16.9167C33.2969 17.0707 34.0023 16.8959 34.2062 16.7377C34.5664 16.4588 34.5392 15.668 34.6017 15.0915C35.1549 15.1123 35.5627 15.8491 36.0044 16.2695C37.2957 17.5015 39.2801 17.4848 40.7426 17.1852C41.0471 17.1227 41.3773 16.9292 41.6587 16.925C41.8354 17.5369 41.8517 18.4734 43.0995 17.6326C43.5996 17.2955 43.6295 17.1373 44.0441 17.6243C46.106 20.0592 47.1648 18.6586 48.0646 19.7179C48.8883 20.6835 49.6957 19.1976 49.2064 18.3319C49.0283 18.0967 49.0786 18.1966 48.7768 18.1487L47.2505 17.8948C46.6307 17.72 45.981 17.4828 45.5134 17.0374C44.3119 15.8928 44.1134 13.6119 43.6105 13C42.8847 13.2768 42.5911 15.0686 40.1514 15.2768C39.2855 15.3496 38.6426 15.2351 37.9263 14.8689C37.1883 14.4922 36.8634 13.5744 36.2776 13.5244Z" fill="#F6CE3C"/>
<path fill-rule="evenodd" clip-rule="evenodd" d="M10.7344 28.3017C11.7225 29.3215 12.5965 28.9135 13.045 30.5764C13.9448 30.4224 13.7504 29.1987 14.8392 28.3079C15.3149 27.9229 16.8168 27.3319 16.969 26.6514C15.8844 25.5817 15.1994 27.1092 13.3889 25.0905C13.0763 24.743 12.8031 24.2809 12.2444 24.3413C11.9862 25.2112 11.8965 25.6899 11.5404 26.4391C11.3107 26.9198 10.8363 27.7148 10.7344 28.3017Z" fill="#F6CE3C"/>
<path fill-rule="evenodd" clip-rule="evenodd" d="M18.3654 27.5866C18.5203 27.4929 18.9118 26.8665 19.1197 26.6292C19.3984 26.315 19.7001 26.1256 19.8061 25.6199C19.0151 25.2307 18.7215 25.5242 18.6481 24.6001C19.1102 24.7042 19.9312 25.4888 20.3199 25.2994C20.8717 25.0289 21.1857 24.1964 21.8721 24.1277C21.6981 25.0809 20.7113 25.0226 20.5564 25.7135C20.8595 25.9987 21.304 26.188 21.656 26.3483C21.8626 26.4419 22.0338 26.5252 22.2296 26.6292L22.5123 26.7853C23.0043 26.9456 22.8657 25.8197 22.7705 24.8894C22.7162 24.3837 22.3995 24.0507 22.2241 23.5908C21.2224 23.5471 19.8537 23.8093 18.8261 23.9591C17.997 24.084 17.6463 26.5439 18.3654 27.5866Z" fill="#F6CE3C"/>
<path fill-rule="evenodd" clip-rule="evenodd" d="M37.2027 26.8138C37.4718 26.7846 37.8823 26.4329 38.2846 26.2956C38.6856 26.1603 39.0689 26.0958 39.3299 25.6025C39.02 24.8741 38.2153 25.0927 38.0713 24.3185C38.9466 24.2331 38.9846 25.1364 39.6167 25.2696C40.1196 25.3736 40.5654 24.4288 41.3497 24.5807C41.2328 25.4527 40.5273 25.0698 40.125 25.6046C40.3425 26.1811 40.2745 25.6275 40.9093 26.5578C41.0805 26.8075 41.4992 27.4797 41.684 27.5713C42.0279 26.7263 42.051 25.4818 41.7411 24.5786C41.453 23.7378 40.9514 23.9855 39.7594 23.8086C39.213 23.7254 37.9924 23.1801 37.6078 23.8461C37.166 24.6078 37.0002 25.4423 37.2027 26.8138Z" fill="#F6CE3C"/>
<path fill-rule="evenodd" clip-rule="evenodd" d="M17.3799 29.6091C17.9602 28.4395 17.8719 26.629 16.6704 27.4552C16.2517 27.7486 16.109 28.221 16.2843 28.9057C16.4814 29.6716 16.8008 29.6404 17.3799 29.6091Z" fill="#F6CE3C"/>
<path fill-rule="evenodd" clip-rule="evenodd" d="M42.9975 23.476C41.9333 24.2189 42.795 26.1461 43.5507 25.6195C43.7437 25.4863 44.0496 24.5852 43.9952 24.0795C43.934 23.4989 43.4801 23.1409 42.9975 23.478V23.476Z" fill="#F6CE3C"/>
<path fill-rule="evenodd" clip-rule="evenodd" d="M16.4073 23.5033C15.971 23.7988 15.8174 24.1131 16.0865 24.983C16.2877 25.6282 16.5405 25.9715 17.0312 25.547C17.8698 24.8186 17.3628 22.8582 16.4073 23.5033Z" fill="#F6CE3C"/>
</svg>
