<svg width="68" height="14" viewBox="0 0 68 14" fill="none" xmlns="http://www.w3.org/2000/svg">
<path d="M4.15548 14C6.5871 14 7.61772 12.7812 7.61772 10.4918C7.61772 8.38353 6.69983 7.56 5.41155 6.78588L3.65627 5.76471C2.835 5.28706 2.25528 4.76 2.25528 3.57412V3.37647C2.25528 2.10824 2.80835 1.5 4 1.5C5.20776 1.5 5.95907 2.10824 5.95907 3.75529V4.56235H7.5211V3.85412C7.5211 1.53176 6.25448 0 4 0C1.69721 0 0.693241 1.61412 0.693241 3.60706C0.693241 5.35294 1.54672 6.24235 2.78669 7L4.54196 8.02118C5.50817 8.56471 6.03958 9.07529 6.03958 10.4918V10.7882C6.03958 12.1882 5.49207 12.6988 4.17158 12.6988C2.75448 12.6988 2.06203 12.1388 2.06203 10.4588V9.25647H0.5V10.1624C0.5 12.7318 1.69165 14 4.15548 14Z" fill="#0F0F0F"/>
<path d="M9.53214 14H17.9542V12H11.2069V7.79059H17.6V6.27529H11.2069V2H17.9542V0H9.53214V14Z" fill="#0F0F0F"/>
<path d="M20.4195 13.8353H31.0799V11.7435H22.69V7.95529H30.5324V5.88H22.69V2.09176H31.0799V0H20.4195V13.8353Z" fill="#0F0F0F"/>
<path d="M36.3781 13.8353H38.7936L39.7437 11.3976H47.1352L48.1014 13.8353H50.533L44.9451 0H41.9499L36.3781 13.8353ZM40.565 9.32235L43.4314 2.00941L46.3139 9.32235H40.565Z" fill="#0F0F0F"/>
<path d="M52.0238 13.8353H60.3976V12H54V0H52.0238V13.8353Z" fill="#0F0F0F"/>
<path d="M61.4934 13.8353H67.5V12.3365H63V0H61.4934V13.8353Z" fill="#0F0F0F"/>
</svg>
