<svg width="18" height="16" viewBox="0 0 18 16" fill="none" xmlns="http://www.w3.org/2000/svg">
<path d="M2.80626 5.87148L14.7519 1.25521C16.1945 0.697705 16.9159 0.418951 17.3657 0.783243C17.8156 1.14754 17.6929 1.91106 17.4474 3.43812L15.9078 13.0181C15.6912 14.3656 15.583 15.0394 15.0937 15.2612C14.6044 15.4829 14.0264 15.1202 12.8702 14.3949L11.3248 13.4252C9.33326 12.1758 8.33751 11.551 8.23617 10.5825C8.13483 9.61402 8.9797 8.79669 10.6694 7.16203L13.9697 3.96934C14.1366 3.80791 14.0223 3.52542 13.7901 3.52542C13.7406 3.52542 13.6921 3.53965 13.6505 3.56641L5.70166 8.67356C5.18785 9.00369 4.93094 9.16875 4.64783 9.24977C4.48484 9.29641 4.31657 9.32214 4.14709 9.32633C3.85271 9.33362 3.55821 9.25287 2.96922 9.09137C1.30827 8.63594 0.477802 8.40823 0.283307 7.98398C0.176648 7.75133 0.163251 7.48664 0.245874 7.24441C0.39654 6.80269 1.19978 6.49229 2.80626 5.87148Z" fill="white" fill-opacity="0.6"/>
</svg>
