<svg width="736" height="197" viewBox="0 0 736 197" fill="none" xmlns="http://www.w3.org/2000/svg">
<path d="M44.4111 86C70.4177 86 85.1214 70 86.7218 51.7L86.9218 49.8H72.3181L72.1181 51.7C71.2179 62.8 62.1156 73.2 44.5111 73.2C23.7059 73.2 14.5035 59.2 14.5035 43C14.5035 27 23.7059 12.8 44.6111 12.8C61.8155 12.8 71.2179 23.1 72.1181 34.1L72.3181 36H86.9218L86.7218 34.1C85.1214 15.9 70.3176 0 44.5111 0C15.5038 0 -0.00012207 19.5 -0.00012207 42.8C-0.00012207 66.4 15.4038 86 44.4111 86Z" fill="#0F0F0F"/>
<path d="M117.186 85H134.59V5H117.186V37.8H111.984V5H94.58V85H111.984V52.2H117.186V85Z" fill="#0F0F0F"/>
<path d="M139.611 85H157.015V5H139.611V85Z" fill="#0F0F0F"/>
<path d="M186.386 85H204.291L195.788 45L204.291 5H186.386L180.785 37.2H179.384V5H161.98V85H179.384V52.8H180.785L186.386 85Z" fill="#0F0F0F"/>
<path d="M204.119 85H221.824L222.524 73.1H229.026L229.726 85H247.43L237.828 5H213.722L204.119 85ZM223.324 58.6L225.325 23.7L225.525 21.2H225.925L226.125 23.7L228.125 58.6H223.324Z" fill="#0F0F0F"/>
<path d="M296.004 86C311.608 86 322.011 79.7 327.812 70.3L329.613 85H339.315V40.7H289.003V52.6H324.011C321.611 65.4 311.708 73.2 295.804 73.2C275.899 73.2 267.597 59.4 267.597 42.9C267.597 27 275.599 12.8 297.405 12.8C312.408 12.8 323.311 20.3 324.512 32.4L324.612 33.4H339.315L339.215 32.4C337.515 14.9 321.311 0 297.105 0C267.797 0 253.093 19.6 253.093 42.9C253.093 66.4 267.797 86 296.004 86Z" fill="#0F0F0F"/>
<path d="M387.039 86C409.945 86 422.648 70.5 422.648 49.6V37.6C422.648 16.8 409.945 1.4 387.039 1.4C364.133 1.4 351.33 16.8 351.33 37.6V49.6C351.33 70.5 364.033 86 387.039 86ZM367.234 51.6V35.7C367.234 24.7 373.035 15 387.039 15C400.943 15 406.744 24.7 406.744 35.7V51.6C406.744 62.8 400.943 72.4 387.039 72.4C373.035 72.4 367.234 62.8 367.234 51.6Z" fill="#0F0F0F"/>
<path d="M456.354 85H479.76L483.261 32.8L483.461 30.3H483.861L484.061 32.8L487.562 85H510.868L520.07 5H502.766L499.665 61.4L499.465 63.9H499.065L498.865 61.4L493.864 5H473.458L468.457 61.4L468.257 63.9H467.857L467.657 61.4L464.456 5H447.152L456.354 85Z" fill="#0F0F0F"/>
<path d="M522.716 85H554.724V70.5H540.12V52.2H553.723V37.8H540.12V19.5H554.724V5H522.716V85Z" fill="#0F0F0F"/>
<path d="M556.454 85H574.159L574.859 73.1H581.361L582.061 85H599.765L590.163 5H566.057L556.454 85ZM575.659 58.6L577.66 23.7L577.86 21.2H578.26L578.46 23.7L580.461 58.6H575.659Z" fill="#0F0F0F"/>
<path d="M671.745 85H685.949C685.949 85 685.949 84.1 685.949 81.5V69.9C685.949 60 680.848 53 672.345 51C680.848 48.8 685.949 41.8 685.949 30.9C685.949 14 675.446 5 656.041 5H609.63V85H623.733V57.5H655.641C665.344 57.5 671.745 60.6 671.745 70.3V81.5C671.745 84.1 671.745 85 671.745 85ZM623.733 44.8V17.7H654.841C665.744 17.7 671.445 21.1 671.445 30.8C671.445 42.4 665.244 44.8 655.641 44.8H623.733Z" fill="#0F0F0F"/>
<path d="M715.495 86C728.998 86 736 78.4 736 63.1C736 50.5 730.999 45.8 724.397 40.4L716.695 34.1C714.194 32.1 712.794 30.2 712.794 26.1V22C712.794 19 713.494 18 715.295 18C717.195 18 717.895 19 717.895 22V30.9H735.6V24.2C735.6 11.4 728.198 4 715.595 4C702.191 4 695.089 12 695.089 25.5C695.089 36 699.591 41.8 706.492 47.5L714.294 53.9C716.795 55.9 718.195 57.8 718.195 61.9V68C718.195 71 717.495 72 715.595 72C713.694 72 712.994 71 712.994 68V57H695.189V61.6C695.189 77.5 701.691 86 715.495 86Z" fill="#0F0F0F"/>
<path d="M4.30096 196H18.4045V163.1H69.1173V150.4H18.4045V124.7H72.7182V112H4.30096V196Z" fill="#0F0F0F"/>
<path d="M117.049 197C139.955 197 152.658 181.5 152.658 160.6V148.6C152.658 127.8 139.955 112.4 117.049 112.4C94.1432 112.4 81.34 127.8 81.34 148.6V160.6C81.34 181.5 94.0432 197 117.049 197ZM97.244 162.6V146.7C97.244 135.7 103.045 126 117.049 126C130.952 126 136.754 135.7 136.754 146.7V162.6C136.754 173.8 130.952 183.4 117.049 183.4C103.045 183.4 97.244 173.8 97.244 162.6Z" fill="#0F0F0F"/>
<path d="M230.256 196H244.459C243.259 194.6 243.259 191.1 243.259 188.5V176.9C243.259 167 238.158 160 229.656 158C238.158 155.8 243.259 148.8 243.259 137.9C243.259 121 232.756 112 213.351 112H166.94V196H181.043V164.5H212.951C222.654 164.5 229.055 167.6 229.055 177.3V188.5C229.055 191.1 229.055 194.6 230.256 196ZM181.043 151.8V124.7H212.151C223.054 124.7 228.755 128.1 228.755 137.8C228.755 149.4 222.554 151.8 212.951 151.8H181.043Z" fill="#0F0F0F"/>
<path d="M273.824 196H289.228V157.9L296.03 196H302.832L309.634 157.9V196H325.037V116H305.633L299.431 154.9L293.229 116H273.824V196Z" fill="#0F0F0F"/>
<path d="M329.991 196H361.999V181.5H347.395V163.2H360.999V148.8H347.395V130.5H361.999V116H329.991V196Z" fill="#0F0F0F"/>
<path d="M373.633 196H387.736V137.5L425.007 196H439.111V116H425.007V174L387.736 116H373.633V196Z" fill="#0F0F0F"/>
</svg>
