<svg width="24" height="24" viewBox="0 0 24 24" fill="none" xmlns="http://www.w3.org/2000/svg">
<mask id="mask0_1073_315" style="mask-type:alpha" maskUnits="userSpaceOnUse" x="0" y="0" width="24" height="24">
<rect width="24" height="24" fill="#D9D9D9"/>
</mask>
<g mask="url(#mask0_1073_315)">
<circle cx="12" cy="8" r="5" stroke="#0F0F0F" stroke-width="2"/>
<path d="M22 22C22 20.6868 21.7413 19.3864 21.2388 18.1732C20.7362 16.9599 19.9997 15.8575 19.0711 14.9289C18.1425 14.0003 17.0401 13.2638 15.8268 12.7612C14.6136 12.2587 13.3132 12 12 12C10.6868 12 9.38642 12.2587 8.17317 12.7612C6.95991 13.2638 5.85752 14.0003 4.92893 14.9289C4.00035 15.8575 3.26375 16.9599 2.7612 18.1732C2.25866 19.3864 2 20.6868 2 22H3.99909C3.99909 20.9493 4.20604 19.9089 4.60812 18.9382C5.01021 17.9675 5.59955 17.0855 6.3425 16.3425C7.08545 15.5995 7.96747 15.0102 8.93818 14.6081C9.9089 14.206 10.9493 13.9991 12 13.9991C13.0507 13.9991 14.0911 14.206 15.0618 14.6081C16.0325 15.0102 16.9145 15.5995 17.6575 16.3425C18.4005 17.0855 18.9898 17.9675 19.3919 18.9382C19.794 19.9089 20.0009 20.9493 20.0009 22H22Z" fill="#0F0F0F"/>
</g>
</svg>
